#Comment line ignore any data following # character 
#Hierarchical Translation and Rotation (.htr) file 
[Header]	
#Header keywords are followed by a single value 
FileType HTR		#Single word string
DataType HTRS		#Translation followed by rotation and scale data
FileVersion 1		#integer
NumSegments 64		#integer
NumFrames 3		#integer
DataFrameRate 30		#integer, data frame rate in this file
EulerRotationOrder ZYX
CalibrationUnits mm
RotationUnits Degrees
GlobalAxisofGravity Y
BoneLengthAxis Y
ScaleFactor 1.00
[SegmentNames&Hierarchy]
#CHILD	PARENT
Pinger_Root GLOBAL
Pelvis Pinger_Root
L_Hip Pelvis
R_Hip Pelvis
Rear_Leg01 Pelvis
Spine1 Pelvis
L_Leg01 L_Hip
L_Leg02 L_Leg01
L_Leg03 L_Leg02
L_Foot L_Leg03
L_Toe1_01 L_Foot
L_Toe2_01 L_Foot
L_Toe3_01 L_Foot
planeAlignerLeft L_Foot
L_Toe1_02 L_Toe1_01
L_Toe1_03 L_Toe1_02
L_Toe2_02 L_Toe2_01
L_Toe2_03 L_Toe2_02
L_Toe3_02 L_Toe3_01
L_Toe3_03 L_Toe3_02
planeLockWeightLeft planeAlignerLeft
R_Leg01 R_Hip
R_Leg02 R_Leg01
R_Leg03 R_Leg02
R_Foot R_Leg03
planeAlignerRight R_Foot
R_Toe1_01 R_Foot
R_Toe2_01 R_Foot
R_Toe3_01 R_Foot
planeLockWeightRight planeAlignerRight
R_Toe1_02 R_Toe1_01
R_Toe1_03 R_Toe1_02
R_Toe2_02 R_Toe2_01
R_Toe2_03 R_Toe2_02
R_Toe3_02 R_Toe3_01
R_Toe3_03 R_Toe3_02
Rear_Leg02 Rear_Leg01
Rear_Leg03 Rear_Leg02
Rear_Leg04 Rear_Leg03
Rear_Foot Rear_Leg04
planeAlignerCenter Rear_Foot
Rear_Toe1_01 Rear_Foot
Rear_Toe2_01 Rear_Foot
Rear_Toe3_01 Rear_Foot
planeLockWeightCenter planeAlignerCenter
Rear_Toe1_02 Rear_Toe1_01
Rear_Toe1_03 Rear_Toe1_02
Rear_Toe2_02 Rear_Toe2_01
Rear_Toe2_03 Rear_Toe2_02
Rear_Toe3_02 Rear_Toe3_01
Rear_Toe3_03 Rear_Toe3_02
Back_Bone Spine1
Head Spine1
Motor_Bone Back_Bone
Ping_Mechanism Back_Bone
BN_LookIK Head
bottomMouth Head
L_Mouth01 Head
L_mouthFront Head
mouthGun Head
R_Mouth01 Head
R_mouthFront Head
TopMouth Head
weapon_bone Head
[BasePosition]
#SegmentName Tx, Ty, Tz, Rx, Ry, Rz, BoneLength
Pinger_Root 0.000000 0.000000 0.000000 -90.000000 0.000000 0.000000 10.000000 
Pelvis 0.000000 0.000000 0.000000 0.000000 0.000000 0.000000 10.000000 
L_Hip 0.000000 0.000000 0.000000 0.000000 0.000000 0.000000 10.000000 
R_Hip 0.000000 0.000000 0.000000 0.000000 0.000000 0.000000 10.000000 
Rear_Leg01 0.000000 0.000000 0.000000 0.000000 0.000000 0.000000 10.000000 
Spine1 0.000000 0.000000 0.000000 0.000000 0.000000 0.000000 10.000000 
L_Leg01 0.000000 0.000000 0.000000 0.000000 0.000000 0.000000 10.000000 
L_Leg02 0.000000 0.000000 0.000000 0.000000 0.000000 0.000000 10.000000 
L_Leg03 0.000000 0.000000 0.000000 0.000000 0.000000 0.000000 10.000000 
L_Foot 0.000000 0.000000 0.000000 0.000000 0.000000 0.000000 10.000000 
L_Toe1_01 0.000000 0.000000 0.000000 0.000000 0.000000 0.000000 10.000000 
L_Toe2_01 0.000000 0.000000 0.000000 0.000000 0.000000 0.000000 10.000000 
L_Toe3_01 0.000000 0.000000 0.000000 0.000000 0.000000 0.000000 10.000000 
planeAlignerLeft 0.000000 0.000000 0.000000 0.000000 0.000000 0.000000 10.000000 
L_Toe1_02 0.000000 0.000000 0.000000 0.000000 0.000000 0.000000 10.000000 
L_Toe1_03 0.000000 0.000000 0.000000 0.000000 0.000000 0.000000 10.000000 
L_Toe2_02 0.000000 0.000000 0.000000 0.000000 0.000000 0.000000 10.000000 
L_Toe2_03 0.000000 0.000000 0.000000 0.000000 0.000000 0.000000 10.000000 
L_Toe3_02 0.000000 0.000000 0.000000 0.000000 0.000000 0.000000 10.000000 
L_Toe3_03 0.000000 0.000000 0.000000 0.000000 0.000000 0.000000 10.000000 
planeLockWeightLeft 0.000000 0.000000 0.000000 0.000000 0.000000 0.000000 10.000000 
R_Leg01 0.000000 0.000000 0.000000 0.000000 0.000000 0.000000 10.000000 
R_Leg02 0.000000 0.000000 0.000000 0.000000 0.000000 0.000000 10.000000 
R_Leg03 0.000000 0.000000 0.000000 0.000000 0.000000 0.000000 10.000000 
R_Foot 0.000000 0.000000 0.000000 0.000000 0.000000 0.000000 10.000000 
planeAlignerRight 0.000000 0.000000 0.000000 0.000000 0.000000 0.000000 10.000000 
R_Toe1_01 0.000000 0.000000 0.000000 0.000000 0.000000 0.000000 10.000000 
R_Toe2_01 0.000000 0.000000 0.000000 0.000000 0.000000 0.000000 10.000000 
R_Toe3_01 0.000000 0.000000 0.000000 0.000000 0.000000 0.000000 10.000000 
planeLockWeightRight 0.000000 0.000000 0.000000 0.000000 0.000000 0.000000 10.000000 
R_Toe1_02 0.000000 0.000000 0.000000 0.000000 0.000000 0.000000 10.000000 
R_Toe1_03 0.000000 0.000000 0.000000 0.000000 0.000000 0.000000 10.000000 
R_Toe2_02 0.000000 0.000000 0.000000 0.000000 0.000000 0.000000 10.000000 
R_Toe2_03 0.000000 0.000000 0.000000 0.000000 0.000000 0.000000 10.000000 
R_Toe3_02 0.000000 0.000000 0.000000 0.000000 0.000000 0.000000 10.000000 
R_Toe3_03 0.000000 0.000000 0.000000 0.000000 0.000000 0.000000 10.000000 
Rear_Leg02 0.000000 0.000000 0.000000 0.000000 0.000000 0.000000 10.000000 
Rear_Leg03 0.000000 0.000000 0.000000 0.000000 0.000000 0.000000 10.000000 
Rear_Leg04 0.000000 0.000000 0.000000 0.000000 0.000000 0.000000 10.000000 
Rear_Foot 0.000000 0.000000 0.000000 0.000000 0.000000 0.000000 10.000000 
planeAlignerCenter 0.000000 0.000000 0.000000 0.000000 0.000000 0.000000 10.000000 
Rear_Toe1_01 0.000000 0.000000 0.000000 0.000000 0.000000 0.000000 10.000000 
Rear_Toe2_01 0.000000 0.000000 0.000000 0.000000 0.000000 0.000000 10.000000 
Rear_Toe3_01 0.000000 0.000000 0.000000 0.000000 0.000000 0.000000 10.000000 
planeLockWeightCenter 0.000000 0.000000 0.000000 0.000000 0.000000 0.000000 10.000000 
Rear_Toe1_02 0.000000 0.000000 0.000000 0.000000 0.000000 0.000000 10.000000 
Rear_Toe1_03 0.000000 0.000000 0.000000 0.000000 0.000000 0.000000 10.000000 
Rear_Toe2_02 0.000000 0.000000 0.000000 0.000000 0.000000 0.000000 10.000000 
Rear_Toe2_03 0.000000 0.000000 0.000000 0.000000 0.000000 0.000000 10.000000 
Rear_Toe3_02 0.000000 0.000000 0.000000 0.000000 0.000000 0.000000 10.000000 
Rear_Toe3_03 0.000000 0.000000 0.000000 0.000000 0.000000 0.000000 10.000000 
Back_Bone 0.000000 0.000000 0.000000 0.000000 0.000000 0.000000 10.000000 
Head 0.000000 0.000000 0.000000 0.000000 0.000000 0.000000 10.000000 
Motor_Bone 0.000000 0.000000 0.000000 0.000000 0.000000 0.000000 10.000000 
Ping_Mechanism 0.000000 0.000000 0.000000 0.000000 0.000000 0.000000 10.000000 
BN_LookIK 0.000000 0.000000 0.000000 0.000000 0.000000 0.000000 10.000000 
bottomMouth 0.000000 0.000000 0.000000 0.000000 0.000000 0.000000 10.000000 
L_Mouth01 0.000000 0.000000 0.000000 0.000000 0.000000 0.000000 10.000000 
L_mouthFront 0.000000 0.000000 0.000000 0.000000 0.000000 0.000000 10.000000 
mouthGun 0.000000 0.000000 0.000000 0.000000 0.000000 0.000000 10.000000 
R_Mouth01 0.000000 0.000000 0.000000 0.000000 0.000000 0.000000 10.000000 
R_mouthFront 0.000000 0.000000 0.000000 0.000000 0.000000 0.000000 10.000000 
TopMouth 0.000000 0.000000 0.000000 0.000000 0.000000 0.000000 10.000000 
weapon_bone 0.000000 0.000000 0.000000 0.000000 0.000000 0.000000 10.000000 
#Beginning of Data. Separated by tabs
#Fr	Tx	Ty	Tz	Rx	Ry	Rz	SF
[Pinger_Root]
25 0.000000 0.000000 0.000000 -0.000075 -0.000000 -0.000020 0.000000
26 0.000000 0.000000 0.000000 -0.000075 -0.000000 -0.000020 0.000000
27 0.000000 0.000000 0.000000 -0.000075 -0.000000 -0.000020 0.000000
[Pelvis]
25 -1578.098389 1648.944336 3377.406982 -68.680412 -72.089897 60.441002 4076.308594
26 -1593.400879 1642.614380 3384.882813 -66.932991 -74.333450 58.441319 4085.895508
27 -1607.808228 1636.965576 3398.683105 -66.247665 -76.814819 57.518021 4100.701172
[L_Hip]
25 5.766392 125.831482 872.656799 160.158691 -45.484905 122.312202 881.701050
26 5.766392 125.831482 872.656799 160.158691 -45.484905 122.312202 881.701050
27 5.766392 125.831482 872.656799 160.158691 -45.484905 122.312202 881.701050
[R_Hip]
25 5.765438 125.836372 -872.654907 38.087841 49.812687 125.703735 881.699829
26 5.765438 125.836372 -872.654907 38.087830 49.812672 125.703735 881.699829
27 5.765438 125.836372 -872.654907 38.087845 49.812691 125.703735 881.699829
[Rear_Leg01]
25 -192.298416 -925.602966 -0.001907 158.970673 11.953132 -154.969009 945.367432
26 -192.298416 -925.602966 -0.001907 157.784042 11.204689 -152.341904 945.367432
27 -192.298416 -925.602966 -0.001907 157.359848 10.919564 -149.909409 945.367432
[Spine1]
25 290.604584 5.007505 0.000477 30.612778 -31.612951 -6.074654 290.647736
26 290.604584 5.007505 0.000477 30.701277 -31.045946 -5.772957 290.647736
27 290.604584 5.007505 0.000477 31.785748 -30.254692 -7.281953 290.647736
[L_Leg01]
25 761.932007 -0.002384 -0.069261 32.138012 -13.111878 3.172952 761.932068
26 761.932007 -0.002384 -0.069261 34.683258 -11.278986 -0.288085 761.932068
27 761.932007 -0.002384 -0.069261 36.809242 -9.894025 -2.314556 761.932068
[L_Leg02]
25 1441.140503 -0.000954 -0.000715 7.878443 -0.058022 -176.445679 1441.140503
26 1441.140503 -0.000954 -0.000715 7.644958 -0.063330 -174.253693 1441.140503
27 1441.140503 -0.000954 -0.000715 7.548152 -0.066126 -173.385498 1441.140503
[L_Leg03]
25 1686.963989 -0.000715 -0.000954 -0.042830 0.019687 122.307922 1686.963989
26 1686.963989 -0.000715 -0.000954 -0.042840 0.019665 122.250305 1686.963989
27 1686.963989 -0.000715 -0.000954 -0.042850 0.019644 122.192688 1686.963989
[L_Foot]
25 3041.570068 -30.715107 11.297464 -38.494415 21.933990 73.239342 3041.746094
26 3041.570068 -30.715107 11.297464 -39.066292 22.179777 72.987213 3041.746094
27 3041.570068 -30.715107 11.297464 -39.082191 22.218195 72.899307 3041.746094
[L_Toe1_01]
25 -188.216690 -224.732346 -21.137953 89.330788 -2.396121 -161.427643 293.899567
26 -188.216690 -224.732346 -21.137953 89.330788 -2.396121 -161.427643 293.899567
27 -188.216690 -224.732346 -21.137953 89.330788 -2.396121 -161.427643 293.899567
[L_Toe2_01]
25 200.746536 -219.926590 148.838394 -78.791496 -10.652695 -43.374847 332.896027
26 200.746536 -219.926590 148.838394 -78.791496 -10.652695 -43.374847 332.896027
27 200.746536 -219.926590 148.838394 -78.791496 -10.652695 -43.374847 332.896027
[L_Toe3_01]
25 188.832520 -219.859131 -191.078659 -109.186691 26.104874 -48.222931 347.140900
26 188.832520 -219.859131 -191.078659 -109.186691 26.104874 -48.222931 347.140900
27 188.832520 -219.859131 -191.078659 -109.186691 26.104874 -48.222931 347.140900
[planeAlignerLeft]
25 0.812531 -811.448792 -0.314951 0.000000 -90.000000 -90.001900 811.449280
26 0.812531 -811.448792 -0.314951 0.000000 -90.000000 -90.001900 811.449280
27 0.812531 -811.448792 -0.314951 0.000000 -90.000000 -90.001900 811.449280
[L_Toe1_02]
25 413.761139 0.000477 0.000000 0.000203 -25.410625 -0.000182 413.761139
26 413.761139 0.000477 0.000000 0.000203 -25.410625 -0.000182 413.761139
27 413.761139 0.000477 0.000000 0.000203 -25.410625 -0.000182 413.761139
[L_Toe1_03]
25 464.317322 0.000358 -0.000089 0.004933 62.473118 0.004933 464.317322
26 464.317322 0.000358 -0.000089 0.004933 62.473118 0.004933 464.317322
27 464.317322 0.000358 -0.000089 0.004933 62.473137 0.004933 464.317322
[L_Toe2_02]
25 342.235809 -0.000477 0.000238 -0.000101 -70.104240 0.000129 342.235809
26 342.235809 -0.000477 0.000238 -0.000101 -70.104240 0.000129 342.235809
27 342.235809 -0.000477 0.000238 -0.000101 -70.104240 0.000129 342.235809
[L_Toe2_03]
25 420.210846 -0.000715 0.000000 0.016997 82.081528 0.016997 420.210846
26 420.210846 -0.000715 0.000000 0.016997 82.081528 0.016997 420.210846
27 420.210846 -0.000715 0.000000 0.016997 82.081528 0.016997 420.210846
[L_Toe3_02]
25 329.270111 0.000954 0.000000 0.001178 -80.668365 0.001178 329.270111
26 329.270111 0.000954 0.000000 0.001178 -80.668320 0.001178 329.270111
27 329.270111 0.000954 0.000000 0.001178 -80.668365 0.001178 329.270111
[L_Toe3_03]
25 439.137451 -0.001907 0.000954 -179.996323 77.872597 -179.992813 439.137451
26 439.137451 -0.001907 0.000954 -179.996323 77.872643 -179.992813 439.137451
27 439.137451 -0.001907 0.000954 -179.996323 77.872643 -179.992813 439.137451
[planeLockWeightLeft]
25 -0.000954 0.000238 -0.000305 -0.011826 -0.004376 0.005620 0.001029
26 -0.000954 0.000238 -0.000305 -0.011826 -0.004376 0.005620 0.001029
27 -0.000954 0.000238 -0.000305 -0.011826 -0.004376 0.005620 0.001029
[R_Leg01]
25 761.455627 -0.001907 -0.000358 113.374748 -34.912727 -6.376456 761.455688
26 761.455627 -0.001907 -0.000358 111.183861 -33.311119 -2.967689 761.455688
27 761.455627 -0.001907 -0.000358 109.448380 -31.286953 0.977618 761.455688
[R_Leg02]
25 1441.140625 0.000000 -0.000238 -3.371661 -1.513257 175.251572 1441.140625
26 1441.140625 0.000000 -0.000238 -3.337789 -1.488286 176.884369 1441.140625
27 1441.140625 0.000000 -0.000238 -3.282793 -1.454583 179.198837 1441.140625
[R_Leg03]
25 1686.963989 0.000954 0.001431 0.115286 -0.072075 142.216431 1686.963989
26 1686.963989 0.000954 0.001431 0.115331 -0.072003 142.144974 1686.963989
27 1686.963989 0.000954 0.001431 0.115376 -0.071931 142.073517 1686.963989
[R_Foot]
25 3041.560059 -30.531288 -11.204481 43.851524 -20.560234 59.997852 3041.734131
26 3041.560059 -30.531288 -11.204481 43.494190 -20.706944 59.745182 3041.734131
27 3041.560059 -30.531288 -11.204481 42.787971 -20.910795 59.411465 3041.734131
[planeAlignerRight]
25 -0.635147 -812.270569 -0.364304 0.000000 -89.960434 -90.005180 812.270874
26 -0.635147 -812.270569 -0.364304 0.000000 -89.960434 -90.005180 812.270874
27 -0.635147 -812.270569 -0.364304 0.000000 -89.960434 -90.005180 812.270874
[R_Toe1_01]
25 -188.383347 -224.864899 21.052242 90.478722 3.231926 -161.378860 294.101532
26 -188.383347 -224.864899 21.052242 90.478722 3.231926 -161.378860 294.101532
27 -188.383347 -224.864899 21.052242 90.478722 3.231925 -161.378845 294.101532
[R_Toe2_01]
25 200.637817 -220.002121 -148.787384 -105.368958 18.813929 -49.808266 332.857574
26 200.637817 -220.002121 -148.787384 -105.368958 18.813929 -49.808262 332.857574
27 200.637817 -220.002121 -148.787384 -105.368958 18.813929 -49.808262 332.857574
[R_Toe3_01]
25 188.606735 -220.092957 191.126343 -76.041084 -6.322367 -46.892487 347.192566
26 188.606735 -220.092957 191.126343 -76.041084 -6.322367 -46.892487 347.192566
27 188.606735 -220.092957 191.126343 -76.041069 -6.322364 -46.892479 347.192566
[planeLockWeightRight]
25 -0.000477 0.000000 0.000000 -0.011823 -0.004379 -0.000027 0.000477
26 -0.000477 0.000000 0.000000 -0.011823 -0.004379 -0.000027 0.000477
27 -0.000477 0.000000 0.000000 -0.011823 -0.004379 -0.000027 0.000477
[R_Toe1_02]
25 413.762085 0.000477 -0.000119 0.001401 -23.743965 0.001401 413.762085
26 413.762085 0.000477 -0.000119 0.001401 -23.743965 0.001401 413.762085
27 413.762085 0.000477 -0.000119 0.001401 -23.743965 0.001401 413.762085
[R_Toe1_03]
25 464.317810 0.000000 0.001088 0.008919 74.877388 0.008919 464.317810
26 464.317810 0.000000 0.001088 0.008919 74.877419 0.008919 464.317810
27 464.317810 0.000000 0.001088 0.008919 74.877419 0.008919 464.317810
[R_Toe2_02]
25 342.234741 -0.000954 0.000238 0.001188 -72.308952 0.001188 342.234741
26 342.234741 -0.000954 0.000238 0.001188 -72.308891 0.001188 342.234741
27 342.234741 -0.000954 0.000238 0.001188 -72.308853 0.001188 342.234741
[R_Toe2_03]
25 420.210846 0.000715 -0.000268 0.028221 85.233101 0.028221 420.210846
26 420.210846 0.000715 -0.000268 0.028220 85.232979 0.028220 420.210846
27 420.210846 0.000715 -0.000268 0.028220 85.232925 0.028220 420.210846
[R_Toe3_02]
25 329.270355 -0.000477 -0.000954 0.001177 -80.843628 0.001177 329.270355
26 329.270355 -0.000477 -0.000954 0.001177 -80.843628 0.001177 329.270355
27 329.270355 -0.000477 -0.000954 0.001177 -80.843628 0.001177 329.270355
[R_Toe3_03]
25 439.137939 0.000238 0.001431 -179.996658 77.074921 -179.993134 439.137939
26 439.137939 0.000238 0.001431 -179.996658 77.074966 -179.993134 439.137939
27 439.137939 0.000238 0.001431 -179.996658 77.075012 -179.993134 439.137939
[Rear_Leg02]
25 1162.777710 -0.029802 0.005960 0.094664 0.031220 -104.952171 1162.777710
26 1162.777710 -0.029802 0.005960 0.097247 0.036314 -106.330193 1162.777710
27 1162.777710 -0.029802 0.005960 0.093186 0.015260 -107.205193 1162.777710
[Rear_Leg03]
25 607.192505 -0.013351 -0.073195 0.006597 -0.001691 56.963791 607.192505
26 607.192505 -0.013351 -0.073195 0.006588 -0.001725 57.549789 607.192505
27 607.192505 -0.013351 -0.073195 0.006584 -0.001741 57.843609 607.192505
[Rear_Leg04]
25 995.874512 -0.020504 -0.011921 -0.036576 -0.015235 44.772923 995.874573
26 995.874512 -0.020504 -0.011921 -0.036710 -0.014910 45.791046 995.874573
27 995.874512 -0.020504 -0.011921 -0.036794 -0.014701 46.441452 995.874573
[Rear_Foot]
25 3096.176270 -0.067472 -0.041425 -179.801376 78.489395 31.195395 3096.176270
26 3096.176270 -0.067472 -0.041425 -179.820877 77.343742 30.979584 3096.176270
27 3096.176270 -0.067472 -0.041425 -179.814041 77.557579 31.050625 3096.176270
[planeAlignerCenter]
25 0.350077 0.966311 -838.790894 0.000009 0.000003 -179.999985 838.791565
26 0.350077 0.966311 -838.790894 0.000009 0.000003 -179.999985 838.791565
27 0.350077 0.966311 -838.790894 0.000009 0.000003 -179.999985 838.791565
[Rear_Toe1_01]
25 0.653352 83.966492 -371.173737 0.291068 41.925030 90.410172 380.553192
26 0.653352 83.966492 -371.173737 0.291112 41.924992 90.410194 380.553192
27 0.653352 83.966492 -371.173737 0.291160 41.924953 90.410240 380.553192
[Rear_Toe2_01]
25 178.200760 -294.826019 -362.060547 -2.185021 34.544960 -64.362518 499.765686
26 178.200760 -294.826019 -362.060547 -2.184987 34.544922 -64.362495 499.765686
27 178.200760 -294.826019 -362.060547 -2.184960 34.544884 -64.362495 499.765686
[Rear_Toe3_01]
25 -153.359680 -308.780914 -362.060852 3.870841 33.514248 -112.318695 499.952881
26 -153.359680 -308.780914 -362.060852 3.870838 33.514244 -112.318695 499.952881
27 -153.359680 -308.780914 -362.060852 3.870838 33.514248 -112.318695 499.952881
[planeLockWeightCenter]
25 -0.000062 0.000238 0.000000 -0.011814 -0.004373 -0.000015 0.000246
26 -0.000062 0.000238 0.000000 -0.011814 -0.004373 -0.000015 0.000246
27 -0.000062 0.000238 0.000000 -0.011814 -0.004373 -0.000015 0.000246
[Rear_Toe1_02]
25 379.707825 0.194073 0.000477 -0.000242 -31.672058 0.006934 379.707855
26 379.707825 0.194073 0.000477 -0.000242 -31.672104 0.006934 379.707855
27 379.707825 0.194073 0.000477 -0.000242 -31.672140 0.006934 379.707855
[Rear_Toe1_03]
25 500.129700 0.165701 0.000119 -0.000107 51.870926 0.007293 500.129761
26 500.129700 0.165701 0.000119 -0.000107 51.871078 0.007293 500.129761
27 500.129700 0.165701 0.000119 -0.000107 51.871223 0.007293 500.129761
[Rear_Toe2_02]
25 340.494507 0.000238 -0.000954 0.001192 -69.854523 0.001192 340.494507
26 340.494507 0.000238 -0.000954 0.001192 -69.854523 0.001192 340.494507
27 340.494507 0.000238 -0.000954 0.001192 -69.854523 0.001192 340.494507
[Rear_Toe2_03]
25 433.103577 0.000000 0.000238 0.006694 69.804276 0.006694 433.103546
26 433.103577 0.000000 0.000238 0.006694 69.804276 0.006694 433.103546
27 433.103577 0.000000 0.000238 0.006694 69.804291 0.006694 433.103546
[Rear_Toe3_02]
25 340.494141 -0.000358 -0.000477 0.008285 -67.268761 -0.009458 340.494171
26 340.494141 -0.000358 -0.000477 0.008286 -67.268768 -0.009458 340.494171
27 340.494141 -0.000358 -0.000477 0.008285 -67.268761 -0.009458 340.494171
[Rear_Toe3_03]
25 433.103577 0.001431 -0.000238 -0.000971 65.947716 -0.004546 433.103546
26 433.103577 0.001431 -0.000238 -0.000971 65.947762 -0.004546 433.103546
27 433.103577 0.001431 -0.000238 -0.000971 65.947815 -0.004546 433.103546
[Back_Bone]
25 1312.175781 -701.934692 0.000954 0.000023 -0.000007 -85.606667 1488.125488
26 1312.175781 -701.934692 0.000954 0.000023 -0.000007 -85.606667 1488.125488
27 1312.175781 -701.934692 0.000954 0.000023 -0.000007 -85.606667 1488.125488
[Head]
25 1406.159424 809.709290 0.001431 -0.001805 -1.886745 20.137924 1622.625488
26 1406.159424 809.709290 0.001431 0.001261 -0.218972 18.414505 1622.625488
27 1406.159424 809.709290 0.001431 -0.001981 0.686869 16.783245 1622.625488
[Motor_Bone]
25 1158.364380 -417.834747 0.000477 -6.397747 13.619150 -98.445839 1231.419434
26 1158.364380 -417.834747 0.000477 -5.098394 12.837710 -99.233521 1231.419434
27 1158.364380 -417.834747 0.000477 -4.170505 10.775175 -99.874680 1231.419434
[Ping_Mechanism]
25 1234.220825 -434.647827 7.238922 0.000103 -0.000053 82.120995 1308.538208
26 1234.188354 -434.165741 7.315369 0.000103 -0.000053 82.120995 1308.347900
27 1234.155762 -433.683655 7.391816 0.000103 -0.000053 82.120995 1308.157715
[BN_LookIK]
25 193.241119 1380.371704 -0.002861 0.000000 89.965736 -31.038179 1393.832153
26 193.241119 1380.371704 -0.002861 0.000000 89.965736 -31.038179 1393.832153
27 193.241119 1380.371704 -0.002861 0.000000 89.965736 -31.038179 1393.832153
[bottomMouth]
25 -435.092926 615.759399 -0.000954 -0.000022 0.000016 73.527184 753.966492
26 -435.092926 615.759399 -0.000954 -0.000022 0.000016 73.527184 753.966492
27 -435.092926 615.759399 -0.000954 -0.000022 0.000016 73.527184 753.966492
[L_Mouth01]
25 554.440979 7.658243 838.222046 150.204178 23.759130 109.605339 1005.027161
26 554.440979 7.658243 838.222046 150.204178 23.759130 109.605339 1005.027161
27 554.440979 7.658243 838.222046 150.204178 23.759130 109.605339 1005.027161
[L_mouthFront]
25 551.629089 934.514771 339.150421 0.000081 2.804060 79.119301 1136.941284
26 551.629089 934.514771 339.150421 0.000081 2.804060 79.119301 1136.941284
27 551.629089 934.514771 339.150421 0.000081 2.804060 79.119301 1136.941284
[mouthGun]
25 55.332661 1627.420898 0.000000 0.000023 0.000009 -11.038128 1628.361328
26 55.332661 1627.420898 0.000000 0.000023 0.000009 -11.038128 1628.361328
27 55.332661 1627.420898 0.000000 0.000023 0.000009 -11.038128 1628.361328
[R_Mouth01]
25 554.442383 7.659197 -838.223938 29.795891 -23.759109 109.605331 1005.029541
26 554.442383 7.659197 -838.223938 29.795891 -23.759109 109.605331 1005.029541
27 554.442383 7.659197 -838.223938 29.795891 -23.759109 109.605331 1005.029541
[R_mouthFront]
25 551.629089 934.514282 -339.151367 0.000029 -2.803930 79.119133 1136.941162
26 551.629089 934.514282 -339.151367 0.000029 -2.803930 79.119133 1136.941162
27 551.629089 934.514282 -339.151367 0.000029 -2.803930 79.119133 1136.941162
[TopMouth]
25 461.269867 -56.106091 -0.008583 -0.000059 -0.000268 92.025169 464.669525
26 461.269867 -56.106091 -0.008583 -0.000059 -0.000268 92.025169 464.669525
27 461.269867 -56.106091 -0.008583 -0.000059 -0.000268 92.025169 464.669525
[weapon_bone]
25 -987.239868 1448.372803 0.001431 0.000000 89.965736 -31.038221 1752.833740
26 -987.239868 1448.372803 0.001431 0.000000 89.965736 -31.038221 1752.833740
27 -987.239868 1448.372803 0.001431 0.000000 89.965736 -31.038221 1752.833740
